<svg xmlns="http://www.w3.org/2000/svg" viewBox="0 0 400 400">
  <!-- Background circle -->
  <circle cx="200" cy="200" r="180" fill="#2A3548" />
  
  <!-- Define gradient and glow -->
  <defs>
    <linearGradient id="hotdogGradient" x1="0%" y1="0%" x2="0%" y2="100%">
      <stop offset="0%" stop-color="#FF8C42" />
      <stop offset="100%" stop-color="#E05E1B" />
    </linearGradient>
    
    <linearGradient id="bunGradient" x1="0%" y1="0%" x2="0%" y2="100%">
      <stop offset="0%" stop-color="#F0C987" />
      <stop offset="100%" stop-color="#DBA04E" />
    </linearGradient>
    
    <filter id="glow" x="-20%" y="-20%" width="140%" height="140%">
      <feGaussianBlur stdDeviation="4" result="blur" />
      <feComposite in="SourceGraphic" in2="blur" operator="over" />
    </filter>
    
    <filter id="shadow" x="-10%" y="-10%" width="120%" height="140%">
      <feDropShadow dx="0" dy="2" stdDeviation="2" flood-opacity="0.2" />
    </filter>
  </defs>
  
  <!-- Hotdog - minimalistic with gradient -->
  <g transform="translate(200, 200) rotate(-15) translate(-200, -200)">
    <!-- Bun bottom with gradient only -->
    <path d="M50 230 C50 260, 350 260, 350 230 L350 245 C350 290, 50 290, 50 245 Z" fill="url(#bunGradient)" filter="url(#shadow)" />
    
    <!-- Sausage with gradient only -->
    <rect x="60" y="180" width="280" height="50" rx="25" fill="url(#hotdogGradient)" filter="url(#shadow)" />
    
    <!-- Bun top with gradient only -->
    <path d="M50 180 C50 150, 350 150, 350 180 L350 165 C350 120, 50 120, 50 165 Z" fill="url(#bunGradient)" filter="url(#shadow)" />
  </g>
  
  <!-- Ruler measurement marks - adjusted for bigger hotdog -->
  <g transform="translate(200, 200) rotate(-15) translate(-200, -200)">
    <line x1="50" y1="205" x2="350" y2="205" stroke="#48BB78" stroke-width="4" />
    <circle cx="50" cy="205" r="8" fill="#48BB78" filter="url(#glow)" />
    <circle cx="350" cy="205" r="8" fill="#48BB78" filter="url(#glow)" />
    
    <!-- Ruler tick marks -->
    <line x1="100" y1="195" x2="100" y2="215" stroke="#48BB78" stroke-width="2" />
    <line x1="150" y1="195" x2="150" y2="215" stroke="#48BB78" stroke-width="2" />
    <line x1="200" y1="190" x2="200" y2="220" stroke="#48BB78" stroke-width="3" />
    <line x1="250" y1="195" x2="250" y2="215" stroke="#48BB78" stroke-width="2" />
    <line x1="300" y1="195" x2="300" y2="215" stroke="#48BB78" stroke-width="2" />
  </g>
  
  <!-- ZK symbol removed -->
  
  <!-- Project Name removed -->
</svg>
